<?xml version="1.0" encoding="utf-8"?>
<!-- Generator: Adobe Illustrator 24.0.3, SVG Export Plug-In . SVG Version: 6.00 Build 0)  -->
<svg version="1.1" id="Layer_1" xmlns="http://www.w3.org/2000/svg" xmlns:xlink="http://www.w3.org/1999/xlink" x="0px" y="0px"
	 viewBox="0 0 459.1 119.6" style="enable-background:new 0 0 459.1 119.6;" xml:space="preserve">
<style type="text/css">
	.st0{fill:#FFD800;}
	.st1{fill:#3E3A39;}
</style>
<title>KNIME_Logo_CB_NT</title>
<path class="st0" d="M69.1,0L0,119.6h138.1L69.1,0z M53.3,105.3V59.7l1.4-6.3l39.5,22.8l4.8,4.4l-39.5,22.8L53.3,105.3z M55.3,50.7
	l1.9-8.6l28.2,26L55.3,50.7z M50.7,106.1l-8.4,2.6l8.4-37.4V106.1z M101.1,82.4l6.5,5.9L70.9,99.8L101.1,82.4z M58.5,38.8l2.7-7.2
	l32,39.1L58.5,38.8z M38.9,109.4l-7.6,1.3l17.9-47.4L38.9,109.4z M109.9,91l4.8,5.9l-49.9,8.2L109.9,91z M62.3,26.8l2.8-5.8l34.2,51
	L62.3,26.8z M26.6,112.1l-6.4,0.4l27.1-55.1L26.6,112.1z M118.3,100.3l3.6,5.3l-61.3,4.1L118.3,100.3z M103.5,70.1l-37-55.2l2.6-4.5
	L103.5,70.1z M43.5,54.7l-29.3,59.7H9L43.5,54.7z M60.1,114.4l66.4-4.5l2.6,4.5H60.1z"/>
<path class="st1" d="M171.1,23.7c0,5.7-3.3,9.3-8.6,9.3c-5.3,0-8.6-3.6-8.6-9.2s3.5-9.2,8.8-9.2C167.7,14.7,171.1,18.3,171.1,23.7z
	 M156.6,23.7c0,4.3,2.3,7.2,5.9,7.2s5.8-2.9,5.8-7.1s-2.3-7.1-5.8-7.1C158.9,16.7,156.6,19.6,156.6,23.7L156.6,23.7z"/>
<path class="st1" d="M175.1,23.6c0-1.4,0-2.8-0.1-3.8h2.3c0,0.5,0.1,1.4,0.1,2.1l0,0c0.9-1.6,2.6-2.5,4.5-2.4c3.3,0,5.6,2.7,5.6,6.6
	c0,4.1-2.3,7-5.6,7c-1.8,0-3.5-0.9-4.4-2.5h0c0,0.5,0.1,2.5,0.1,3.2v4.3h-2.4L175.1,23.6z M177.5,26.3c0,2.6,1.7,4.8,3.8,4.8
	c2.1,0,3.6-2.1,3.6-4.8c0-2.9-1.4-4.8-3.6-4.8S177.5,23.6,177.5,26.3z"/>
<path class="st1" d="M192.9,26.8c0,2.3,1.8,4.2,4.1,4.2c0.1,0,0.3,0,0.4,0c1.3,0,2.6-0.3,3.8-1l0.1,2.2c-1.3,0.5-2.6,0.8-4,0.8
	c-4.3,0-6.8-2.6-6.8-6.9c0-4.1,2.5-6.7,6.2-6.7c3.4,0,5.6,2.1,5.6,6.4c0,0.3,0,0.7,0,1L192.9,26.8z M199.9,25c0-2.5-1.4-3.7-3.3-3.7
	c-1.9,0-3.4,1.4-3.6,3.7H199.9z"/>
<path class="st1" d="M208.2,21.8c0.9-1.5,2.6-2.4,4.3-2.4c3.7,0,4.9,2.4,4.9,5.9v7.4H215v-6.4c0-2.5-0.2-4.9-3-4.9
	c-1.3,0-2.5,0.7-3.1,1.9c-0.5,1-0.7,2.1-0.6,3.2v6.2h-2.4v-9.2c0-1.4,0-2.8-0.1-3.8h2.4C208.1,20.3,208.2,21.1,208.2,21.8
	L208.2,21.8z"/>
<path class="st1" d="M235.9,15.5c-0.4-0.1-0.8-0.2-1.2-0.2c-1.6,0-2.2,0.9-2.2,3.2v1.3h3.5v1.9h-3.5v11H230v-11H227v-1.9h3.1v-1.2
	c0-3.1,1.1-5.2,4.2-5.2c0.6,0,1.2,0.1,1.8,0.2L235.9,15.5z"/>
<path class="st1" d="M251.1,26.3c0,3.7-3,6.7-6.7,6.7c-3.7,0-6.7-3-6.7-6.7c0,0,0,0,0,0c-0.2-3.6,2.5-6.7,6.1-6.9c0.2,0,0.4,0,0.6,0
	C248.3,19.4,251.1,22.3,251.1,26.3z M240.3,26.3c0,2.8,1.7,4.7,4.2,4.7s4.1-1.9,4.1-4.7s-1.7-4.9-4.2-4.9S240.3,23.4,240.3,26.3z"/>
<path class="st1" d="M257.1,21.9c0.6-1.5,2.1-2.4,3.6-2.5c0.4,0,0.8,0,1.2,0.2v2.3c-0.4-0.2-0.9-0.2-1.3-0.2c-2.2,0-3.6,1.9-3.6,5.2
	v5.9h-2.4v-9.1c0-1.4,0-2.8-0.1-3.8h2.4C257,20.5,257.1,21.2,257.1,21.9L257.1,21.9z"/>
<path class="st1" d="M274.5,32.7h-2.6V15h2.6V32.7z"/>
<path class="st1" d="M281.7,21.8c0.9-1.5,2.6-2.4,4.3-2.4c3.7,0,4.9,2.4,4.9,5.9v7.4h-2.4v-6.4c0-2.5-0.2-4.9-3-4.9
	c-1.3,0-2.5,0.7-3.1,1.9c-0.5,1-0.7,2.1-0.6,3.2v6.2h-2.4v-9.2c0-1.4,0-2.8-0.1-3.8h2.4C281.6,20.3,281.7,21.1,281.7,21.8
	L281.7,21.8z"/>
<path class="st1" d="M297.7,21.8c0.9-1.5,2.6-2.4,4.3-2.4c3.7,0,4.8,2.4,4.8,5.9v7.4h-2.4v-6.4c0-2.5-0.2-4.9-3-4.9
	c-1.3,0-2.5,0.7-3.1,1.9c-0.5,1-0.7,2.1-0.6,3.2v6.2h-2.4v-9.2c0-1.4,0-2.8-0.1-3.8h2.4C297.6,20.3,297.6,21.1,297.7,21.8
	L297.7,21.8z"/>
<path class="st1" d="M323.7,26.3c0.2,3.5-2.6,6.6-6.1,6.7c-0.2,0-0.4,0-0.6,0c-3.6,0.1-6.6-2.7-6.7-6.3c0-0.1,0-0.3,0-0.4
	c-0.2-3.6,2.5-6.7,6.1-6.9c0.2,0,0.4,0,0.6,0C321,19.4,323.7,22.3,323.7,26.3z M313,26.3c0,2.8,1.7,4.7,4.1,4.7s4.1-1.9,4.1-4.7
	s-1.7-4.9-4.2-4.9S313,23.4,313,26.3z"/>
<path class="st1" d="M330.5,27.7c0.3,0.8,0.7,2.2,0.9,3.1h0c0.2-0.9,0.7-2.4,1-3.1l2.6-7.9h2.5l-4.8,13h-2.9l-4.7-13h2.6L330.5,27.7
	z"/>
<path class="st1" d="M340.4,20.5c1.3-0.7,2.8-1.1,4.3-1.1c3.8,0,5.2,2.2,5.2,5.2c0,1.7,0,3.7,0,4.2c0,1.4,0,3,0.1,3.9h-2.2
	c0-0.2,0-0.7,0-1.1s0-0.8,0-1.2h0c-0.9,1.6-2.5,2.5-4.3,2.4c-2.8,0-4.5-1.5-4.5-3.9c0-2.7,2.5-4.2,6.8-4.2c0.5,0,1.2,0,1.8,0.1v-0.1
	c0-2.2-1.1-3.3-3.3-3.3c-1.4,0-2.7,0.5-3.8,1.2L340.4,20.5z M346.4,26.5c-3.2,0-4.8,0.8-4.8,2.5c0,1.3,1,2,2.5,2
	c1.4,0,2.6-0.7,3.2-1.9c0.3-0.8,0.5-1.7,0.4-2.6C347.4,26.5,347,26.5,346.4,26.5L346.4,26.5z"/>
<path class="st1" d="M357.9,19.8h3.5v1.9h-3.5v5.7c0,2.1,0.3,3.5,2.2,3.5c0.5,0,1-0.1,1.4-0.3l0.1,1.9c-0.7,0.2-1.4,0.4-2.1,0.4
	c-3.3,0-4-2-4-4.8v-6.4h-3v-1.9h3v-3.1l2.4-0.8L357.9,19.8z"/>
<path class="st1" d="M367.2,17.4h-2.7v-2.7h2.7V17.4z M367.1,32.7h-2.5v-13h2.5V32.7z"/>
<path class="st1" d="M384.1,26.3c0.2,3.5-2.5,6.5-6.1,6.7c-0.2,0-0.4,0-0.6,0c-3.6,0.1-6.6-2.7-6.7-6.3c0-0.2,0-0.3,0-0.5
	c-0.2-3.6,2.5-6.7,6.1-6.9c0.2,0,0.4,0,0.6,0C381.3,19.4,384.1,22.3,384.1,26.3z M373.3,26.3c0,2.8,1.7,4.7,4.1,4.7s4.1-1.9,4.1-4.7
	s-1.7-4.9-4.2-4.9S373.3,23.4,373.3,26.3z"/>
<path class="st1" d="M390.1,21.8c0.9-1.5,2.6-2.4,4.3-2.4c3.7,0,4.9,2.4,4.9,5.9v7.4h-2.4v-6.4c0-2.5-0.3-4.9-3-4.9
	c-1.3,0-2.5,0.7-3.2,1.9c-0.5,1-0.7,2.1-0.6,3.2v6.2h-2.4v-9.2c0-1.4,0-2.8-0.1-3.8h2.4C390,20.3,390,21.1,390.1,21.8L390.1,21.8z"
	/>
<path class="st1" d="M167.2,51v31.7h0.3L192.7,51h15.1l-25.6,32.3l33.1,36.3h-17l-31.1-33.7v33.7h-13.3V51H167.2z"/>
<path class="st1" d="M233.5,51l40.8,47.9V51h13v68.6h-11.4l-41-48.7v48.7h-13V51H233.5z"/>
<path class="st1" d="M315.5,51v68.6h-13.3V51H315.5z"/>
<path class="st1" d="M342.3,51L364.9,78L387.4,51h11.8v68.6H386V71.4h-0.4l-19.8,24.2h-1.9L344,71.4h-0.4v48.2h-13.3V51H342.3z"/>
<path class="st1" d="M458.4,51v10.4h-31.1v18h29.8v10.4h-29.8v19.5h31.8v10.4h-45.1V51H458.4z"/>
</svg>
