<svg xmlns="http://www.w3.org/2000/svg" fill="none" stroke="#000" stroke-linejoin="round" viewBox="0 0 93 93">
  <path stroke-miterlimit="10" d="M82.667 15.45h-5v13.951h5v-13.95zM64.333 26.508h-5v5.787h5v-5.787zm0-2.893h-5v2.893h5v-2.893zm9.167 3.316h-5v5.364h5v-5.364zm9.167-16.609h-5v5.128h5v-5.128zM73.5 22.09h-5v4.84h5v-4.84zm9.167 7.312h-5v2.893h5v-2.893z"/>
  <path stroke-miterlimit="10" d="M64.333 16.37h-5v7.245h5V16.37zM85.07 35.678H56.93M60 80l10-10V56.385M83.615 70H70.142"/>
  <path stroke-miterlimit="10" d="M70 83.615c7.52 0 13.615-6.096 13.615-13.615 0-7.52-6.096-13.615-13.615-13.615-7.52 0-13.615 6.095-13.615 13.615 0 7.52 6.096 13.615 13.615 13.615zM11.5 57v25m-.5-.5h25"/>
  <path stroke-linecap="round" stroke-width="2.4%" d="M20 62h0m10.5-3.5h0m-5 6h0m8-1h0m-3 4h0m-10 0h0m-3 4h0m-3 5h0"/>
  <path stroke-miterlimit="10" d="M23 9.653 8.966 19.849l5.361 16.498h17.346l5.361-16.498L23 9.653z"/>
  <path stroke-miterlimit="10" d="M37.034 19.849 23 23.925V9.653m8.673 26.694L23 23.925l-8.673 12.422L8.966 19.85 23 23.925"/>
  <path stroke-miterlimit="10" d="m23 15.66-7.635 6.048 2.519 9.544 10.259.236 6.379-10.909L23 15.66z"/>
  <path d="M0 46.5h93M46.5 0v93"/>
</svg>