<svg width="16" height="16" viewBox="0 0 16 16" fill="none" xmlns="http://www.w3.org/2000/svg">
<g clip-path="url(#clip0_1675_1824)">
<path d="M4.88889 5.66667L2.55556 5.66663C2.143 5.66663 1.74733 5.83051 1.45561 6.12224C1.16389 6.41396 1 6.80962 1 7.22218V10.3333C1 10.7459 1.16389 11.1415 1.45561 11.4332C1.74733 11.725 2.143 11.8888 2.55556 11.8888H4.88889L4.88889 9.55556C4.88889 9.143 5.05277 8.74734 5.3445 8.45561C5.63622 8.16389 6.03188 8 6.44444 8H9.55555C9.96811 8 10.3638 7.83611 10.6555 7.54439C10.9472 7.25267 11.1111 6.857 11.1111 6.44444V2.55556C11.1111 2.143 10.9472 1.74733 10.6555 1.45561C10.3638 1.16389 9.96811 1 9.55555 1H6.44444C6.03188 1 5.63622 1.16389 5.3445 1.45561C5.05277 1.74733 4.88889 2.143 4.88889 2.55556V5.66667Z" fill="#1E6DA8"/>
<path d="M11.1111 10.3333L13.4444 10.3334C13.857 10.3334 14.2527 10.1695 14.5444 9.87776C14.8361 9.58604 15 9.19038 15 8.77782L15 5.66671C15 5.25415 14.8361 4.85849 14.5444 4.56676C14.2527 4.27504 13.857 4.11115 13.4444 4.11115H11.1111L11.1111 6.44444C11.1111 6.857 10.9472 7.25266 10.6555 7.54439C10.3638 7.83611 9.96812 8 9.55556 8H6.44445C6.03189 8 5.63623 8.16389 5.3445 8.45561C5.05278 8.74733 4.88889 9.143 4.88889 9.55556V13.4444C4.88889 13.857 5.05278 14.2527 5.3445 14.5444C5.63623 14.8361 6.03189 15 6.44445 15L9.55556 15C9.96812 15 10.3638 14.8361 10.6555 14.5444C10.9472 14.2527 11.1111 13.857 11.1111 13.4444V10.3333Z" fill="#FFD800"/>
<path d="M8 5.66663H2.55556C2.143 5.66663 1.74733 5.83051 1.45561 6.12224C1.16389 6.41396 1 6.80962 1 7.22218V10.3333C1 10.7459 1.16389 11.1415 1.45561 11.4332C1.74733 11.725 2.143 11.8888 2.55556 11.8888H4.88889" stroke="#201E1E" stroke-linecap="round" stroke-linejoin="round"/>
<path d="M8 10.3333H13.4444C13.857 10.3333 14.2527 10.1694 14.5444 9.87769C14.8361 9.58597 15 9.19031 15 8.77775V5.66664C15 5.25408 14.8361 4.85842 14.5444 4.5667C14.2527 4.27497 13.857 4.11108 13.4444 4.11108H11.1111" stroke="#201E1E" stroke-linecap="round" stroke-linejoin="round"/>
<path d="M4.88889 5.66667V2.55556C4.88889 2.143 5.05277 1.74733 5.3445 1.45561C5.63622 1.16389 6.03188 1 6.44444 1H9.55555C9.96811 1 10.3638 1.16389 10.6555 1.45561C10.9472 1.74733 11.1111 2.143 11.1111 2.55556V6.44444C11.1111 6.857 10.9472 7.25266 10.6555 7.54439C10.3638 7.83611 9.96811 8 9.55555 8H6.44444C6.03188 8 5.63622 8.16389 5.3445 8.45561C5.05277 8.74734 4.88889 9.143 4.88889 9.55556V13.4444C4.88889 13.857 5.05277 14.2527 5.3445 14.5444C5.63622 14.8361 6.03188 15 6.44444 15H9.55555C9.96811 15 10.3638 14.8361 10.6555 14.5444C10.9472 14.2527 11.1111 13.857 11.1111 13.4444V10.3333" stroke="#201E1E" stroke-linecap="round" stroke-linejoin="round"/>
<path d="M7.22222 3.33337V3.34126" stroke="#201E1E" stroke-width="1.5" stroke-linecap="round" stroke-linejoin="round"/>
<path d="M8.77778 12.6666V12.6745" stroke="#201E1E" stroke-width="1.5" stroke-linecap="round" stroke-linejoin="round"/>
</g>
<defs>
<clipPath id="clip0_1675_1824">
<rect width="16" height="16" fill="white"/>
</clipPath>
</defs>
</svg>
